<svg xmlns="http://www.w3.org/2000/svg" width="128" height="19.166" viewBox="0 0 128 19.166">
  <g id="Group_158" data-name="Group 158" transform="translate(-347 -1538)">
    <path id="Path_255" data-name="Path 255" d="M19.948,18.207a1.061,1.061,0,0,0-.915-.731l-5.772-.524-2.283-5.343a1.063,1.063,0,0,0-1.955,0L6.74,16.952l-5.773.524a1.064,1.064,0,0,0-.6,1.86l4.363,3.827L3.44,28.83a1.061,1.061,0,0,0,1.581,1.148L10,27l4.977,2.976a1.063,1.063,0,0,0,1.582-1.148l-1.287-5.668,4.363-3.826A1.063,1.063,0,0,0,19.948,18.207Z" transform="translate(347 1527.036)" fill="#ff5a00"/>
    <path id="Path_256" data-name="Path 256" d="M19.948,18.207a1.061,1.061,0,0,0-.915-.731l-5.772-.524-2.283-5.343a1.063,1.063,0,0,0-1.955,0L6.74,16.952l-5.773.524a1.064,1.064,0,0,0-.6,1.86l4.363,3.827L3.44,28.83a1.061,1.061,0,0,0,1.581,1.148L10,27l4.977,2.976a1.063,1.063,0,0,0,1.582-1.148l-1.287-5.668,4.363-3.826A1.063,1.063,0,0,0,19.948,18.207Z" transform="translate(374 1527.036)" fill="#ff5a00"/>
    <path id="Path_257" data-name="Path 257" d="M19.948,18.207a1.061,1.061,0,0,0-.915-.731l-5.772-.524-2.283-5.343a1.063,1.063,0,0,0-1.955,0L6.74,16.952l-5.773.524a1.064,1.064,0,0,0-.6,1.86l4.363,3.827L3.44,28.83a1.061,1.061,0,0,0,1.581,1.148L10,27l4.977,2.976a1.063,1.063,0,0,0,1.582-1.148l-1.287-5.668,4.363-3.826A1.063,1.063,0,0,0,19.948,18.207Z" transform="translate(401 1527.036)" fill="#ff5a00"/>
    <path id="Path_258" data-name="Path 258" d="M19.948,18.207a1.061,1.061,0,0,0-.915-.731l-5.772-.524-2.283-5.343a1.063,1.063,0,0,0-1.955,0L6.74,16.952l-5.773.524a1.064,1.064,0,0,0-.6,1.86l4.363,3.827L3.44,28.83a1.061,1.061,0,0,0,1.581,1.148L10,27l4.977,2.976a1.063,1.063,0,0,0,1.582-1.148l-1.287-5.668,4.363-3.826A1.063,1.063,0,0,0,19.948,18.207Z" transform="translate(428 1527.036)" fill="#ff5a00"/>
    <path id="Path_259" data-name="Path 259" d="M19.948,18.207a1.061,1.061,0,0,0-.915-.731l-5.772-.524-2.283-5.343a1.063,1.063,0,0,0-1.955,0L6.74,16.952l-5.773.524a1.064,1.064,0,0,0-.6,1.86l4.363,3.827L3.44,28.83a1.061,1.061,0,0,0,1.581,1.148L10,27l4.977,2.976a1.063,1.063,0,0,0,1.582-1.148l-1.287-5.668,4.363-3.826A1.063,1.063,0,0,0,19.948,18.207Z" transform="translate(455 1527.036)" fill="#ff5a00"/>
  </g>
</svg>
